<?xml version="1.0" encoding="utf-8"?>
<svg xmlns="http://www.w3.org/2000/svg" viewBox="0 0 500 500" xmlns:bx="https://boxy-svg.com" width="500px" height="500px"><defs><bx:export><bx:file format="svg" href="#Layer_1"/><bx:file format="svg" path="Untitled 2.svg"/></bx:export></defs><g id="Layer_1" style="" transform="matrix(1.828499, 0, 0, 1.828499, -571.191589, 126.276749)"><ellipse style="stroke: rgb(0, 0, 0); stroke-width: 2.941598px; fill: rgb(204, 224, 228);" cx="452.422" cy="43.709" rx="77.295" ry="77.295"/><path fill="#000000" opacity="1.000000" stroke="none" d="M 447.759 105.059 C 447.103 108.38 444.776 109.462 442.083 109.871 C 439.815 110.216 437.524 110.022 435.303 109.291 C 431.41 108.009 429.599 105.004 430.232 100.799 C 430.733 97.464 433.6 95.228 437.419 95.193 C 443.333 95.139 447.729 99.211 447.759 105.059 Z" style="stroke-width: 1;"/><path fill="#000000" opacity="1.000000" stroke="none" d="M 463.878 109.793 C 459.723 107.234 459.038 103.276 461.947 99.726 C 464.725 96.338 468.395 95.269 472.583 95.98 C 475.766 96.521 477.794 98.941 478.177 102.269 C 478.544 105.473 477.176 107.637 473.85 109.014 C 470.703 110.317 467.475 110.852 463.878 109.793 Z" style="stroke-width: 1;"/><path fill="#000000" opacity="1.000000" stroke="none" d="M 492.315 85.698 C 493.609 82.318 495.262 79.674 498.313 78.244 C 501.8 76.609 504.97 77.412 507.18 80.35 C 509.426 83.336 509.241 86.546 506.411 89.316 C 504.607 91.081 502.545 92.395 500.121 93.183 C 493.761 95.248 490.98 92.768 492.315 85.698 Z" style="stroke-width: 1;"/><path fill="#000000" opacity="1.000000" stroke="none" d="M 410.26 81.108 C 412.264 85.067 415.557 88.932 412.135 92.805 C 409.474 95.816 405.888 93.255 402.894 92.123 C 399.334 90.777 396.301 88.724 396.353 84.29 C 396.384 81.54 397.732 79.605 400.218 78.385 C 404.195 76.432 407.263 77.947 410.26 81.108 Z" style="stroke-width: 1;"/><path fill="#000000" opacity="1.000000" stroke="none" d="M 429.74 90.626 C 421.619 89.274 420.203 87.927 420.826 82.608 C 421.315 78.427 423.873 77.122 427.738 77.4 C 432.652 77.754 436.568 81.354 436.537 85.79 C 436.508 90.037 433.756 90.965 429.74 90.626 Z" style="stroke-width: 1;"/><path fill="#000000" opacity="1.000000" stroke="none" d="M 474.407 89.215 C 472.388 90.261 470.727 90.528 470.096 88.256 C 469.201 85.034 469.478 81.841 472.254 79.58 C 475.156 77.217 478.627 76.246 481.96 78.391 C 485.122 80.426 484.957 83.756 483.81 86.91 C 482.737 89.859 481.221 92.109 477.656 89.354 C 477.011 88.856 475.735 89.174 474.407 89.215 Z" style="stroke-width: 1;"/><path fill="#000000" opacity="1.000000" stroke="none" d="M 417.434 68.957 C 415.982 69.467 414.877 69.932 413.754 69.981 C 410.366 70.127 406.711 70.194 405.366 66.254 C 404.141 62.662 405.899 59.712 408.803 57.597 C 411.543 55.602 414.365 56.278 416.49 58.52 C 419.289 61.473 420.94 64.875 417.434 68.957 Z" style="stroke-width: 1;"/><path fill="#000000" opacity="1.000000" stroke="none" d="M 521.709 65.537 C 520.793 70.618 517.579 72.737 513.273 73.98 C 509.777 74.988 508.624 73.339 508.554 70.378 C 508.499 68.052 509.219 65.798 510.275 63.718 C 511.649 61.012 513.214 58.116 516.805 58.626 C 520.263 59.117 521.552 61.848 521.709 65.537 Z" style="stroke-width: 1;"/><path fill="#000000" opacity="1.000000" stroke="none" d="M 392.524 60.702 C 393.624 62.411 394.787 63.745 395.201 65.282 C 396.048 68.424 397.511 73.018 394.439 74.349 C 390.981 75.848 387.251 72.751 385.011 69.529 C 382.719 66.232 382.391 62.609 385.657 59.627 C 387.959 57.524 390.249 58.473 392.524 60.702 Z" style="stroke-width: 1;"/><path fill="#000000" opacity="1.000000" stroke="none" d="M 499.413 62.292 C 500.314 67.029 498.122 69.29 494.086 69.919 C 490.923 70.413 487.95 69.86 486.873 66.263 C 485.719 62.408 487.193 59.397 490.572 57.408 C 494.045 55.362 496.544 56.718 499.413 62.292 Z" style="stroke-width: 1;"/><path fill="#000000" opacity="1.000000" stroke="none" d="M 460.299 82.412 C 460.762 88.341 460.074 89.165 455.386 87.496 C 452.11 86.33 449.697 88.224 446.807 89.061 C 444.345 85.283 444.791 81.955 448.033 79.294 C 451.535 76.42 456.424 77.678 460.299 82.412 Z" style="stroke-width: 1;"/><path fill="#000000" opacity="1.000000" stroke="none" d="M 502.355 46.538 C 500.838 45.393 500.03 44.18 499.925 42.605 C 499.738 39.805 500.298 37.248 503.082 35.931 C 505.506 34.784 507.208 36.248 508.545 38.045 C 510.33 40.443 511.253 43.319 509.48 45.868 C 507.83 48.239 505.039 47.236 502.355 46.538 Z" style="stroke-width: 1;"/><path fill="#000000" opacity="1.000000" stroke="none" d="M 398.809 35.755 C 403.768 36.126 404.882 39.088 404.267 43.033 C 403.724 46.513 401.296 47.532 398.069 47.17 C 394.532 46.773 393.223 44.166 394.56 40.142 C 395.219 38.159 396.493 36.705 398.809 35.755 Z" style="stroke-width: 1;"/><path fill="#000000" opacity="1.000000" stroke="none" d="M 520.595 41.371 C 521.243 39.617 521.51 37.9 523.465 37.996 C 525.247 38.084 525.938 39.553 526.33 40.997 C 527.24 44.352 527.775 47.754 526.968 51.237 C 526.623 52.723 526.326 54.358 524.422 54.336 C 522.753 54.318 521.918 52.986 521.331 51.536 C 520.049 48.366 520.21 45.08 520.595 41.371 Z" style="stroke-width: 1;"/><path fill="#000000" opacity="1.000000" stroke="none" d="M 381.936 53.971 C 380.485 54.626 379.528 54.237 379.166 53.203 C 377.578 48.663 377.604 44.128 379.764 39.759 C 380.262 38.751 381.135 37.797 382.519 38.082 C 383.799 38.346 384.594 39.259 384.637 40.517 C 384.792 45.089 385.819 49.842 381.936 53.971 Z" style="stroke-width: 1;"/><path fill="#000000" opacity="1.000000" stroke="none" d="M 425.674 42.456 C 423.526 42.645 421.745 42.82 419.785 43.014 C 418.663 38.574 421.107 36.656 424.257 35.705 C 427.744 34.652 430.887 35.592 432.773 39.039 C 433.325 40.049 433.699 41.232 433.052 42.383 C 432.315 43.693 431.138 43.392 429.97 43.151 C 428.667 42.882 427.352 42.676 425.674 42.456 Z" style="stroke-width: 1;"/><path fill="#000000" opacity="1.000000" stroke="none" d="M 391.316 16.113 C 393.653 20.684 391.892 24.414 389.753 28.041 C 389.156 29.052 388.165 29.875 386.895 29.716 C 385.318 29.519 384.878 28.132 384.525 26.85 C 383.249 22.216 386.168 17.309 391.316 16.113 Z" style="stroke-width: 1;"/><path fill="#000000" opacity="1.000000" stroke="none" d="M 406.76 23.608 C 404.675 21.296 405.29 19.326 406.878 17.62 C 408.396 15.99 410.371 15.115 412.666 15.567 C 414.586 15.945 416.168 17.051 416.292 19.074 C 416.431 21.348 415.26 23.171 413.162 24.241 C 411.071 25.307 409.033 25.067 406.76 23.608 Z" style="stroke-width: 1;"/><path fill="#000000" opacity="1.000000" stroke="none" d="M 519.453 22.134 C 519.82 25.115 521.724 28.911 518.16 29.763 C 514.206 30.708 513.351 26.469 512.565 23.547 C 511.906 21.096 511.645 18.403 513.222 15.726 C 516.806 16.42 517.918 19.246 519.453 22.134 Z" style="stroke-width: 1;"/><path fill="#000000" opacity="1.000000" stroke="none" d="M 442.423 57.62 C 444.61 59.538 446.295 61.315 445.111 64.726 C 441.135 63.906 437.114 61.993 432.999 64.283 C 432.656 58.034 436.106 55.636 442.423 57.62 Z" style="stroke-width: 1;"/><path fill="#000000" opacity="1.000000" stroke="none" d="M 463.893 57.798 C 470.01 55.626 473.352 58.349 472.601 64.882 C 469.178 63.009 465.385 63.198 461.871 62.685 C 461.189 60.389 462.452 59.235 463.893 57.798 Z" style="stroke-width: 1;"/><path fill="#000000" opacity="1.000000" stroke="none" d="M 482.044 41.955 C 478.855 40.353 475.877 41.228 472.712 41.656 C 472.123 37.11 474.807 35.767 478.102 35.476 C 481.546 35.172 483.757 37.227 484.599 40.451 C 485.016 42.048 483.776 42.381 482.044 41.955 Z" style="stroke-width: 1;"/><path fill="#000000" opacity="1.000000" stroke="none" d="M 452.923 35.711 C 456.73 35.502 458.919 36.905 459.731 40.899 C 455.969 40.899 452.625 40.899 449.148 40.899 C 448.384 37.891 450.209 36.684 452.923 35.711 Z" style="stroke-width: 1;"/><path fill="#000000" opacity="1.000000" stroke="none" d="M 399.993 0.545 C 402.084 -2.687 404.091 -5.438 408.883 -5.372 C 407.799 -0.698 404.924 2.504 401.57 4.264 C 399.004 5.61 399.441 2.609 399.993 0.545 Z" style="stroke-width: 1;"/><path fill="#000000" opacity="1.000000" stroke="none" d="M 431.968 -1.848 C 429.164 0.598 426.516 1.953 423.589 -1.075 C 426.659 -5.194 429.78 -5.54 431.968 -1.848 Z" style="stroke-width: 1;"/><path fill="#000000" opacity="1.000000" stroke="none" d="M 445.51 22.111 C 442.483 20.314 439.503 21.464 436.321 21.464 C 436.845 18.311 438.957 17.623 441.24 17.458 C 443.724 17.277 445.73 18.381 446.927 20.618 C 447.46 21.614 446.825 22.101 445.51 22.111 Z" style="stroke-width: 1;"/><path fill="#000000" opacity="1.000000" stroke="none" d="M 505.093 2.705 C 499.997 3.424 499.525 -0.969 496.325 -4.578 C 501.915 -3.853 503.545 -0.777 505.093 2.705 Z" style="stroke-width: 1;"/><path fill="#000000" opacity="1.000000" stroke="none" d="M 486.793 18.185 C 490.464 14.181 493.267 14.907 495.87 20.672 C 492.658 19.906 489.761 19.215 486.793 18.185 Z" style="stroke-width: 1;"/><path fill="#000000" opacity="1.000000" stroke="none" d="M 468.307 17.613 C 465.28 19.41 462.3 18.26 459.118 18.26 C 459.642 21.413 461.754 22.101 464.037 22.266 C 466.521 22.447 468.527 21.343 469.724 19.106 C 470.257 18.11 469.622 17.623 468.307 17.613 Z" style="stroke-width: 1; transform-box: fill-box; transform-origin: 50% 50%;" transform="matrix(-1, 0, 0, -1, 0, 0)"/></g></svg>