<svg version="1.1" id="Layer_1" xmlns="http://www.w3.org/2000/svg" xmlns:xlink="http://www.w3.org/1999/xlink" x="0px" y="0px"
	 width="100%" viewBox="0 0 848 896" enable-background="new 0 0 848 896" xml:space="preserve">
<!-- Drop shadow removed: no <filter>, <feDropShadow>, or filter attributes remain. -->
<path fill="#000000" opacity="1.000000" stroke="none" 
	d="
M503.535583,410.468323 
	C484.859558,391.872894 467.341339,372.662506 449.514191,353.747925 
	C447.538330,351.651550 445.842865,350.977051 442.995941,351.917694 
	C426.056396,357.514801 408.954529,357.767853 391.919159,352.485321 
	C388.438446,351.405945 386.395569,352.250580 384.110687,354.669678 
	C366.383270,373.438446 349.195557,392.719788 330.878143,410.928192 
	C319.570129,422.168915 306.655670,429.976959 290.137665,430.829712 
	C279.578430,431.374847 269.154297,430.276062 258.775146,429.022675 
	C243.242279,427.146881 227.929337,423.936951 213.217133,418.401337 
	C193.593811,411.017883 182.860138,395.231323 182.705444,374.257690 
	C182.611145,361.472504 185.138290,349.437042 191.824844,338.457397 
	C198.147552,328.075165 207.558212,324.740753 219.256546,328.379822 
	C233.933929,332.945618 246.514069,341.510071 259.444763,349.384399 
	C274.383911,358.481781 289.193115,367.792419 304.108032,376.929993 
	C306.939789,378.664825 309.919739,380.216736 312.974792,381.515564 
	C318.937347,384.050568 324.967316,383.905548 329.893005,379.504333 
	C343.175995,367.635834 355.405243,354.697174 367.918457,341.372009 
	C363.706177,337.340637 359.407715,333.965027 355.653748,330.006561 
	C336.603149,309.918274 328.777985,286.013977 331.239807,258.647949 
	C331.493408,255.829239 330.915833,253.992233 329.115540,251.978043 
	C308.023285,228.379883 287.005493,204.715195 265.954315,181.080246 
	C265.072998,180.090729 264.190521,178.636917 263.084259,178.385193 
	C252.265717,175.923508 247.344620,166.396393 240.699646,159.281342 
	C220.691833,137.858078 201.284973,115.873634 181.639587,94.111794 
	C178.179153,90.278564 174.631454,86.521919 171.243118,82.626335 
	C166.010101,76.609955 165.888840,71.403221 170.666245,65.037277 
	C176.826736,56.828384 185.825607,53.617683 192.163971,57.602219 
	C196.165222,60.117546 198.867004,64.075447 201.888962,67.595055 
	C226.297546,96.023109 251.995697,123.489281 274.507080,153.354446 
	C292.183563,176.805283 312.856812,197.396667 331.276794,220.034317 
	C333.665405,222.969864 336.428131,225.601028 339.544739,228.937500 
	C356.918182,199.022598 382.443695,183.120956 416.562195,182.962555 
	C450.917816,182.803055 476.080566,199.315567 493.644714,228.939957 
	C499.261597,224.612228 503.128662,219.155838 507.566040,214.322556 
	C521.980469,198.621948 536.166504,182.711838 550.495422,166.932327 
	C553.199280,163.954758 556.041199,161.161972 556.509949,156.856537 
	C556.739990,154.744293 558.289429,153.330109 559.593750,151.822388 
	C585.524780,121.848412 611.452942,91.871895 637.396973,61.909164 
	C643.524292,54.832733 650.011292,54.045704 657.544434,59.597820 
	C659.668396,61.163246 661.679443,63.019718 663.318726,65.079704 
	C668.599426,71.715378 668.144226,77.062500 662.423828,83.301262 
	C635.632874,112.519890 608.903259,141.794724 582.134888,171.034027 
	C581.018616,172.253296 579.922668,173.897552 578.497192,174.362701 
	C567.535706,177.939590 562.232483,187.828751 555.090698,195.477142 
	C538.496948,213.248123 522.527222,231.600388 506.130280,249.557907 
	C503.179535,252.789505 502.301483,255.759476 502.721710,260.244934 
	C505.184784,286.535675 497.326233,309.504913 479.362152,328.960419 
	C475.291962,333.368500 470.773682,337.262604 466.066498,340.657837 
	C466.137421,341.338867 466.045563,341.781097 466.222260,341.964325 
	C477.782867,353.952850 489.243713,366.041443 500.993591,377.842133 
	C507.510986,384.387695 515.225281,384.279266 523.132935,380.377533 
	C539.004456,372.546173 553.624756,362.596649 568.739075,353.477295 
	C583.122620,344.798859 597.029175,335.245697 612.974487,329.358887 
	C627.408325,324.030060 637.167419,327.187531 644.303772,340.776215 
	C651.575012,354.621796 654.006348,369.549774 650.736206,384.862915 
	C647.446411,400.267548 637.771851,410.926910 623.271179,416.924133 
	C606.057800,424.043274 587.925537,427.364258 569.475830,429.204590 
	C563.673401,429.783386 557.835693,429.847107 552.042053,430.301208 
	C532.596130,431.825256 516.981750,424.365051 503.535583,410.468323 
M477.520325,222.990356 
	C472.653137,217.041779 467.496399,211.359344 461.142700,206.961044 
	C428.893585,184.637039 387.473938,188.679733 360.699890,217.307510 
	C346.559570,232.426849 340.847198,251.501724 341.815979,271.590820 
	C342.674316,289.389557 354.818970,302.915131 364.669678,316.863556 
	C367.188751,320.430511 371.468109,322.111938 376.058075,318.558380 
	C379.004028,316.277649 382.262695,317.057190 385.447052,318.790771 
	C388.258392,320.321259 389.778076,323.278290 392.414520,324.966583 
	C399.829987,314.901825 410.293121,315.067139 414.879578,325.041504 
	C416.374847,328.293243 415.948090,330.226410 412.178925,331.380859 
	C407.846375,332.707916 403.461090,332.129639 398.746765,332.098114 
	C402.779266,336.533661 409.239594,337.012817 414.130249,332.938721 
	C416.833221,330.687073 418.303955,331.031281 420.805084,333.096710 
	C425.964111,337.357056 432.702301,336.282654 437.729523,330.543762 
	C432.535797,331.953125 427.744080,332.969147 422.762329,331.113190 
	C419.267517,329.811188 418.366943,327.906250 420.048828,324.652710 
	C422.481598,319.946564 426.175232,317.388641 431.631287,317.438995 
	C437.602417,317.494080 438.937073,322.175110 440.745514,326.712830 
	C442.213379,325.128723 443.406128,323.772919 444.671082,322.488251 
	C450.293884,316.777740 452.689941,316.317810 459.947510,319.855103 
	C461.812653,320.764221 463.450104,320.601685 465.200775,319.837036 
	C468.844238,318.245758 471.743866,315.735535 473.506897,312.212097 
	C476.578400,306.073639 480.615234,300.564331 484.302887,294.821899 
	C489.918762,286.076813 493.444977,276.547791 492.533905,266.056458 
	C491.204712,250.750626 486.708893,236.392975 477.520325,222.990356 
M256.007263,377.551422 
	C243.597015,370.403839 231.203369,363.227081 218.754181,356.148010 
	C217.304718,355.323792 215.636871,353.257690 213.179214,356.382050 
	C235.979431,371.243439 259.582458,383.949280 283.515594,396.062134 
	C283.923706,395.367432 284.331787,394.672760 284.739868,393.978088 
	C275.843353,387.870728 265.782471,383.638916 256.007263,377.551422 
M265.138580,368.421570 
	C252.015015,360.519196 238.649216,353.047668 225.096222,345.909149 
	C223.448349,345.041168 221.844391,343.537567 219.096878,346.047943 
	C242.875046,359.725708 266.181061,373.131866 289.487030,386.538055 
	C289.711731,386.181030 289.936401,385.824005 290.161072,385.466980 
	C283.415405,377.956818 274.115936,374.044708 265.138580,368.421570 
M554.604309,381.037140 
	C574.884155,369.437378 595.164001,357.837585 615.910583,345.970825 
	C610.005066,343.662079 548.877014,378.765594 545.991760,385.649780 
	C549.204285,384.862213 551.499939,382.939606 554.604309,381.037140 
M610.853638,359.413025 
	C591.030151,370.620178 571.206665,381.827332 550.175110,393.717499 
	C558.093140,394.793488 618.177795,360.765747 620.846619,354.624329 
	C617.001587,354.974792 614.590637,357.796112 610.853638,359.413025 
M259.243896,393.315491 
	C253.444458,390.078766 247.563202,386.978973 241.864670,383.573425 
	C233.173370,378.379364 224.647919,372.907593 215.950623,367.723907 
	C214.515549,366.868530 212.880692,364.968140 209.845383,367.230591 
	C230.542816,380.945923 251.251236,393.457184 273.362762,403.662506 
	C270.407196,398.193481 264.481293,396.836426 259.243896,393.315491 
M585.701172,391.127869 
	C598.697449,383.995728 611.262634,376.201965 623.917175,367.486084 
	C620.839294,365.564056 619.399109,367.184326 618.007324,368.070099 
	C600.481384,379.223816 582.461182,389.514801 564.118225,399.255157 
	C562.608704,400.056702 560.712402,400.835388 561.374695,404.247589 
	C569.479736,399.892578 577.276794,395.703094 585.701172,391.127869 
M215.706406,381.888580 
	C213.919632,381.045441 212.559311,378.971222 209.957535,379.666107 
	C214.064850,386.347229 251.973450,408.346893 259.183472,407.189392 
	C244.890656,398.885559 230.597839,390.581726 215.706406,381.888580 
M601.957397,395.394043 
	C619.448303,386.244568 622.346436,384.162323 623.981812,379.041229 
	C607.572205,388.288177 591.629578,397.272003 575.686890,406.255859 
	C576.029663,406.896362 576.372375,407.536835 576.715149,408.177338 
	C585.394836,405.067444 593.158020,399.996887 601.957397,395.394043 
M238.615158,409.595306 
	C230.689758,403.495178 221.542679,399.689453 212.046188,394.951050 
	C215.615707,400.773468 229.858688,408.608124 238.615158,409.595306 
M614.420410,401.912659 
	C617.236389,400.103333 620.748901,399.070007 622.350891,394.271698 
	C613.471924,400.091858 603.950928,402.731049 596.560852,409.277527 
	C602.835876,408.217346 608.293823,405.198822 614.420410,401.912659 
z"/>
<path fill="#000000" opacity="1.000000" stroke="none" 
	d="
M200.130371,181.932175 
	C213.446075,179.358276 226.353470,176.992264 239.192978,174.302185 
	C242.266113,173.658325 244.421646,174.249435 246.195114,176.604614 
	C249.361725,180.809967 253.417313,184.347458 256.378357,189.844818 
	C215.527679,199.055725 174.905457,206.182022 134.469574,209.155151 
	C132.781662,210.543503 132.958603,211.576248 132.958908,212.565216 
	C132.995026,329.396667 133.375656,446.229523 132.900620,563.058899 
	C132.702682,611.742188 146.185333,655.947205 172.040146,696.688660 
	C194.851120,732.633789 224.826584,761.778198 259.146912,786.596252 
	C302.055817,817.624939 349.283752,839.999695 399.469818,856.524658 
	C410.992188,860.318665 421.733765,860.531189 433.434998,856.688049 
	C480.232574,841.317566 524.721924,821.251465 565.558228,793.563843 
	C610.173279,763.314209 647.813049,726.421631 673.322388,678.280334 
	C687.506348,651.512390 695.879395,622.935059 699.828491,592.942322 
	C701.224243,582.341980 701.676758,571.757080 701.672974,561.095642 
	C701.632385,446.430359 701.647888,331.765045 701.646973,217.099747 
	C701.646912,209.330750 701.658997,209.127304 693.862366,208.511124 
	C672.445679,206.818588 651.175842,203.988464 630.043396,200.215393 
	C614.174683,197.382095 598.395752,194.044998 582.585022,190.891174 
	C581.480164,190.670776 580.443115,190.109985 578.529724,189.389236 
	C582.269897,183.603195 586.714905,179.022964 591.797729,175.137909 
	C593.481323,173.851044 595.971619,174.764084 598.115173,175.216644 
	C629.042114,181.746429 660.264648,186.383011 691.679138,189.794830 
	C699.769470,190.673492 707.835510,191.784088 715.932922,192.583359 
	C718.511780,192.837906 719.442993,193.938644 719.339111,196.372559 
	C719.261047,198.202072 719.346985,200.038284 719.346985,201.871506 
	C719.348083,323.703369 719.286621,445.535309 719.392639,567.367065 
	C719.417786,596.311096 714.169495,624.227783 704.562012,651.424438 
	C688.981506,695.529236 663.149780,732.781250 629.369446,764.879761 
	C588.272644,803.930542 540.854431,833.048340 489.026184,855.414978 
	C466.819153,864.998413 443.912476,872.547302 420.753204,879.405762 
	C417.920227,880.244751 415.250549,880.208679 412.427551,879.380188 
	C368.129120,866.378174 325.828491,848.756226 285.867645,825.507385 
	C255.023361,807.562500 226.579056,786.461853 201.198593,761.430908 
	C170.831223,731.481812 147.080032,697.027344 131.664536,656.982056 
	C120.103172,626.948730 114.519150,596.031982 114.577019,563.829224 
	C114.794472,442.831085 114.662193,321.832306 114.661064,200.833740 
	C114.660980,192.243393 114.666954,192.319061 123.014626,191.705841 
	C148.742935,189.815948 174.204834,185.793076 200.130371,181.932175 
z"/>
<path fill="#000000" opacity="1.000000" stroke="none" 
	d="
M297.122009,540.906555 
	C288.118469,540.935181 288.175446,540.915161 285.428253,533.105225 
	C276.867645,508.768738 268.239807,484.455902 259.701416,460.111664 
	C258.838715,457.652008 257.338501,455.310730 257.754150,451.734741 
	C266.142700,451.734741 274.561646,451.617035 282.973969,451.801483 
	C285.746552,451.862335 285.911865,454.695679 286.529297,456.644653 
	C290.850769,470.285522 295.060059,483.961853 299.337799,497.616669 
	C300.009460,499.760559 300.846191,501.852722 302.769684,503.987885 
	C307.114471,491.819397 311.473083,479.655792 315.796265,467.479645 
	C317.244781,463.399902 318.654999,459.304901 319.983063,455.184753 
	C320.817078,452.597290 322.394714,451.499756 325.166046,451.578674 
	C330.327026,451.725494 335.511627,451.866943 340.654907,451.530029 
	C344.306091,451.290863 346.010681,452.586151 347.155182,456.015808 
	C351.737610,469.748047 356.577911,483.394257 361.326447,497.070984 
	C362.084991,499.255798 362.780914,501.473999 364.679962,503.771210 
	C369.276581,491.664978 373.027191,479.669159 376.704529,467.646545 
	C377.970306,463.508240 379.310303,459.392456 380.637451,455.273163 
	C381.214600,453.481812 381.898285,451.728760 384.224487,451.724365 
	C392.355255,451.709015 400.486084,451.718445 408.323151,451.718445 
	C409.884735,453.893951 408.588135,455.378510 408.070526,456.825012 
	C398.816803,482.685791 389.394196,508.486877 380.300781,534.403564 
	C378.601440,539.246704 376.263580,541.503296 370.972504,540.984863 
	C366.517059,540.548279 361.971527,540.700439 357.488708,540.970947 
	C353.321716,541.222412 351.181091,539.575012 349.848175,535.601562 
	C345.348541,522.188049 340.547302,508.875610 335.841064,495.531708 
	C335.243011,493.835876 334.524414,492.182556 333.360443,489.244232 
	C329.852448,498.963623 326.737885,507.498596 323.693359,516.058472 
	C321.294983,522.801636 318.837585,529.529846 316.693085,536.354736 
	C315.603088,539.823730 313.621216,541.097107 310.095642,540.927429 
	C305.940216,540.727478 301.766968,540.897034 297.122009,540.906555 
z"/>
<path fill="#000000" opacity="1.000000" stroke="none" 
	d="
M336.427216,637.499390 
	C335.484192,634.986389 334.681000,632.827820 333.617371,629.969421 
	C327.891449,642.988403 323.963928,655.847351 319.533478,668.511841 
	C314.742737,682.206238 314.859344,682.356323 300.552155,682.194824 
	C285.873383,682.029114 289.526062,684.480164 284.548492,670.746277 
	C275.931702,646.971008 267.466431,623.140747 258.976227,599.319824 
	C258.327271,597.499084 257.136932,595.725525 258.002563,592.961365 
	C266.306946,592.961365 274.732727,592.837036 283.150787,593.036987 
	C285.686920,593.097229 285.718597,595.849426 286.286377,597.624268 
	C290.796600,611.722534 295.190521,625.857971 299.646027,639.973816 
	C300.232971,641.833313 300.966187,643.646606 302.024780,646.565186 
	C306.853241,633.126221 311.593750,620.768127 315.728241,608.210510 
	C320.781097,592.863586 320.561279,592.791199 336.508911,592.784790 
	C337.341614,592.784424 338.193970,592.900757 339.003845,592.764587 
	C344.171814,591.895569 346.659607,594.041748 348.281891,599.117798 
	C353.134674,614.301697 358.572021,629.298767 363.953735,644.868164 
	C365.967499,643.387085 366.182129,641.567078 366.699768,639.981079 
	C371.292572,625.908264 375.950806,611.855225 380.351074,597.722168 
	C381.469604,594.129639 383.166107,592.541931 387.061646,592.732117 
	C393.043091,593.024231 399.049194,592.853760 405.044250,592.806396 
	C408.530121,592.778870 409.359741,594.058716 408.136749,597.431641 
	C398.439362,624.176941 388.811279,650.947876 379.322571,677.767761 
	C378.117249,681.174622 376.346863,682.482727 372.781342,682.315125 
	C367.463348,682.065125 362.119781,682.080566 356.798401,682.281738 
	C353.406860,682.410034 351.713287,681.063110 350.625671,677.881409 
	C346.051666,664.500488 341.271637,651.190063 336.427216,637.499390 
z"/>
<path fill="#000000" opacity="1.000000" stroke="none" 
	d="
M572.859314,457.761322 
	C580.765503,452.143677 589.493042,449.805359 598.569641,449.966125 
	C607.439026,450.123199 615.853271,452.784943 622.774963,459.327881 
	C624.494263,451.650818 624.494263,451.649414 632.249817,451.649963 
	C636.413208,451.650269 640.578186,451.725342 644.739502,451.634949 
	C647.430786,451.576477 648.564209,452.480804 648.545898,455.407898 
	C648.380249,481.886078 648.539551,508.367432 648.211792,534.843018 
	C647.962646,554.970886 631.297424,572.298767 610.022827,575.231079 
	C594.389954,577.385864 579.536194,575.009949 565.642090,567.403137 
	C559.360229,563.963867 559.319641,563.504883 563.460999,557.773438 
	C566.089844,554.135254 568.051636,549.388489 571.587891,547.192810 
	C575.905457,544.512024 579.357361,550.116211 583.542358,551.329041 
	C592.419922,553.901855 601.132385,554.808105 609.966309,551.633362 
	C618.647583,548.513550 624.282959,539.036194 623.163513,528.956177 
	C617.345581,534.028870 610.852600,536.778870 603.383728,537.804077 
	C581.054932,540.868774 558.894104,524.175781 556.083252,501.653870 
	C553.911926,484.256622 558.613892,469.342224 572.859314,457.761322 
M583.984070,485.611969 
	C583.558167,487.040863 583.045349,488.450317 582.720581,489.901825 
	C580.783997,498.556274 585.404541,508.859589 592.982666,512.879028 
	C601.054932,517.160522 613.140320,515.755005 618.446350,509.648529 
	C624.727173,502.420135 625.476135,493.951202 622.324097,485.344635 
	C619.293579,477.070068 612.720276,472.571014 603.963867,472.397705 
	C594.908142,472.218536 588.015015,476.290497 583.984070,485.611969 
z"/>
<path fill="#000000" opacity="1.000000" stroke="none" 
	d="
M600.758545,679.305725 
	C580.827087,680.423035 561.357544,667.590881 556.402588,644.659119 
	C551.891235,623.780579 561.848755,602.824829 580.484802,594.682800 
	C594.172791,588.702576 607.389404,589.533203 619.634949,598.715576 
	C620.281250,599.200195 621.011108,599.573303 621.626160,599.951599 
	C622.089783,599.690796 622.605713,599.543091 622.612000,599.376404 
	C622.853577,592.890198 626.995178,592.350830 632.157532,592.755371 
	C636.298523,593.079895 640.485535,592.886841 644.650208,592.815430 
	C647.361755,592.768982 648.500977,593.821472 648.486511,596.667847 
	C648.352417,622.996582 648.993896,649.351196 648.009521,675.645813 
	C647.368225,692.776978 638.135315,705.796021 622.079285,712.333679 
	C602.544250,720.287903 583.213928,718.282410 564.874512,707.918945 
	C559.361755,704.803772 559.376282,704.250977 562.992920,699.261780 
	C565.995178,695.120239 568.547852,690.614746 572.562866,686.654541 
	C578.674438,691.647949 585.752441,693.735168 593.301758,694.604797 
	C606.366638,696.109802 616.558716,691.742920 621.064148,682.349243 
	C622.838806,678.649170 624.083008,674.719421 623.195496,669.673340 
	C616.388184,674.925171 609.446411,678.700439 600.758545,679.305725 
M584.366455,626.007935 
	C583.778381,627.904175 583.023376,629.766418 582.630127,631.702271 
	C580.504517,642.166138 586.849365,652.779053 597.054138,655.973572 
	C607.259827,659.168518 617.842712,654.845276 621.942993,645.806458 
	C626.841248,635.008423 622.674194,621.514221 612.818665,616.259216 
	C602.569641,610.794495 591.613708,614.326050 584.366455,626.007935 
z"/>
<path fill="#000000" opacity="1.000000" stroke="none" 
	d="
M496.835846,473.685669 
	C489.000793,476.615753 486.321899,482.606262 486.232758,489.948578 
	C486.050873,504.931335 485.980011,519.919250 486.186310,534.900574 
	C486.249573,539.495544 484.679871,541.203613 480.151611,540.983276 
	C475.002136,540.732727 469.829529,540.826599 464.670807,540.941467 
	C461.211761,541.018494 459.574799,539.924377 459.592651,536.078735 
	C459.716095,509.439636 459.706390,482.799530 459.606598,456.160248 
	C459.593323,452.614594 460.968781,451.459686 464.330780,451.615295 
	C468.485016,451.807556 472.669586,451.930878 476.811584,451.649750 
	C481.869476,451.306396 485.723145,451.861145 483.589081,460.331085 
	C490.708344,453.298950 497.935394,450.746338 505.822296,450.173737 
	C528.388367,448.535492 544.897949,461.385864 545.204956,483.701721 
	C545.440857,500.847656 545.116638,518.001099 545.325256,535.147827 
	C545.379517,539.606018 543.658203,541.058960 539.501221,540.941467 
	C534.177979,540.791016 528.842590,540.805786 523.520203,540.981384 
	C519.841919,541.102661 518.586792,539.600098 518.619690,535.956909 
	C518.754944,520.973389 518.768066,505.987000 518.634766,491.003357 
	C518.538086,480.141113 513.779114,474.228882 504.586823,472.798065 
	C502.013184,472.397430 499.648895,473.223358 496.835846,473.685669 
z"/>
<path fill="#000000" opacity="1.000000" stroke="none" 
	d="
M512.591858,617.313721 
	C499.971008,609.555542 486.491211,616.793457 486.212433,631.353943 
	C485.925385,646.345581 485.960327,661.348145 486.167358,676.341614 
	C486.231720,681.005005 484.565704,682.559998 480.043640,682.303406 
	C474.728088,682.001770 469.381927,682.140198 464.051666,682.234741 
	C460.874176,682.291016 459.619690,680.972473 459.627808,677.765869 
	C459.695587,650.938538 459.698059,624.110840 459.630127,597.283508 
	C459.622101,594.110352 460.749481,592.652405 463.991974,592.805847 
	C467.151031,592.955383 470.426239,592.425110 473.453796,593.089478 
	C476.625946,593.785583 481.059753,594.523438 477.863647,599.770447 
	C481.671722,601.960144 484.483246,601.128113 487.585999,598.613770 
	C499.491974,588.965881 512.776917,588.799438 526.127014,594.648621 
	C539.220398,600.385376 545.158875,611.261841 545.218262,625.377808 
	C545.289795,642.373840 545.096375,659.372009 545.306213,676.365723 
	C545.363892,681.037476 543.680115,682.598511 539.171631,682.308594 
	C534.524597,682.009827 529.822693,681.939087 525.184753,682.292664 
	C520.239380,682.669800 518.449158,681.079956 518.564270,675.890442 
	C518.885681,661.400696 518.695679,646.899109 518.663452,632.402283 
	C518.650818,626.726624 517.374573,621.498352 512.591858,617.313721 
z"/>
<path fill="#000000" opacity="1.000000" stroke="none" 
	d="
M303.244202,171.917419 
	C300.189636,168.206161 297.384338,164.771271 294.648285,161.421204 
	C296.283447,158.840622 298.607666,158.741318 300.598663,158.247604 
	C334.413177,149.862961 367.306854,138.574158 399.636108,125.767609 
	C411.401611,121.106941 421.733795,120.148041 433.733093,125.400108 
	C456.279480,135.268600 479.824707,142.695908 503.280487,150.173813 
	C515.291199,154.002960 527.600403,156.895874 540.932007,160.527145 
	C536.996094,166.090271 533.337769,171.030685 528.854492,175.317261 
	C527.637695,176.480667 525.942932,175.518661 524.548096,175.125610 
	C499.092346,167.952789 473.745453,160.445236 449.068665,150.840332 
	C439.458435,147.099792 429.734924,143.650070 420.129456,139.897812 
	C417.502991,138.871811 415.285126,139.510071 412.922211,140.420288 
	C384.821472,151.244995 356.501953,161.442368 327.605133,169.965454 
	C322.025879,171.611069 316.356171,172.953735 310.793213,174.649506 
	C307.627380,175.614594 305.258148,175.004013 303.244202,171.917419 
z"/>
<path fill="#000000" opacity="1.000000" stroke="none" 
	d="
M248.423248,457.460999 
	C256.304688,462.602173 256.024475,462.349823 249.956573,469.087830 
	C244.604996,475.030396 240.024124,479.241058 231.599060,473.175598 
	C227.232010,470.031647 221.051407,469.145325 215.269913,471.330261 
	C212.131805,472.516174 209.387070,474.140442 209.447052,477.923553 
	C209.503006,481.452026 212.497208,482.575592 215.175552,483.327820 
	C221.259918,485.036713 227.541245,486.080963 233.562775,487.968750 
	C243.907166,491.211792 252.961792,496.084808 255.692184,507.967438 
	C258.124329,518.552063 254.201492,528.894470 245.175446,535.019897 
	C228.168976,546.561157 198.162704,544.179199 183.145370,530.075134 
	C182.313034,529.293396 181.628510,528.354309 180.474426,527.027893 
	C184.668579,522.170715 189.708145,518.406860 194.570496,514.488159 
	C196.423859,512.994446 198.028961,514.666443 199.491547,515.659607 
	C206.059326,520.119263 213.274384,522.127563 221.202988,521.677551 
	C223.751709,521.532898 226.163467,520.924927 228.320831,519.624207 
	C233.177368,516.696106 233.166840,511.275543 228.260468,508.457123 
	C224.897049,506.525085 221.047241,505.978790 217.315216,505.137665 
	C210.499390,503.601471 203.625427,502.253998 197.467346,498.675476 
	C181.600128,489.454834 180.851273,467.231079 196.253754,457.138275 
	C209.898544,448.197235 224.613220,448.998993 239.476791,453.364899 
	C242.477097,454.246185 245.238022,455.942444 248.423248,457.460999 
z"/>
<path fill="#000000" opacity="1.000000" stroke="none" 
	d="
M214.692642,591.452881 
	C230.210815,589.992676 243.520645,594.098755 255.592468,603.824463 
	C250.905563,608.646301 246.793488,612.925232 242.622681,617.146179 
	C240.677216,619.115051 239.010269,617.639648 237.310593,616.570496 
	C231.788681,613.096924 225.770645,611.535828 219.242126,611.898682 
	C217.222763,612.010986 215.245163,612.274292 213.432388,613.175476 
	C211.269653,614.250610 209.507538,615.708557 209.385056,618.401245 
	C209.255508,621.249756 211.204315,622.564270 213.377777,623.551697 
	C217.949738,625.628845 222.902359,626.458923 227.735626,627.649292 
	C232.921326,628.926392 238.007950,630.467651 242.770950,632.896606 
	C258.127625,640.727783 261.158020,660.857361 248.829437,672.882446 
	C245.199127,676.423401 241.076309,679.240051 236.186691,680.639954 
	C217.565842,685.970886 199.995361,684.618713 184.276978,672.128357 
	C180.016998,668.743225 179.994904,668.059875 183.976990,664.630188 
	C184.103134,664.521484 184.236877,664.420959 184.356674,664.305725 
	C190.791443,658.121765 196.795807,652.516113 206.355225,660.409485 
	C210.732758,664.024109 217.423431,663.622498 223.301559,662.726013 
	C227.180283,662.134460 230.993027,661.099854 231.764069,656.371826 
	C232.583542,651.346802 228.935471,649.521118 225.211212,648.381592 
	C218.709763,646.392456 212.013092,645.043152 205.505417,643.071899 
	C195.172043,639.941772 187.168640,634.326965 185.568161,622.610291 
	C184.006088,611.174500 189.250107,603.041260 198.351471,596.970703 
	C203.128876,593.784241 208.530975,592.103516 214.692642,591.452881 
z"/>
<path fill="#000000" opacity="1.000000" stroke="none" 
	d="
M444.220154,452.663422 
	C444.635376,454.524536 444.917877,456.006439 444.919434,457.488647 
	C444.946228,482.968719 444.958771,508.448822 444.924500,533.928894 
	C444.915283,540.786316 444.753021,540.873596 437.916229,540.903259 
	C432.753784,540.925659 427.590881,540.909668 422.429047,540.976196 
	C419.595215,541.012695 418.070007,539.899963 418.087921,536.877258 
	C418.252686,509.075073 417.587524,481.268585 418.546600,453.470917 
	C418.557495,453.155396 418.749939,452.846161 419.096130,451.842316 
	C427.222443,451.854065 435.578613,450.979187 444.220154,452.663422 
z"/>
<path fill="#000000" opacity="1.000000" stroke="none" 
	d="
M418.269073,675.276123 
	C418.245209,665.525208 418.126892,656.208496 418.108124,646.891724 
	C418.077301,631.580322 418.102539,616.268799 418.120911,600.957336 
	C418.130615,592.852234 418.146515,592.843933 426.464142,592.824951 
	C431.127014,592.814331 435.791809,592.918884 440.452179,592.814148 
	C443.394226,592.747986 444.538361,593.799622 444.524902,596.907959 
	C444.408722,623.711609 444.390778,650.516052 444.468597,677.319885 
	C444.479126,680.954834 443.233734,682.433594 439.534241,682.279297 
	C434.546875,682.071411 429.544373,682.237183 424.548431,682.219543 
	C418.363861,682.197693 418.209290,682.028381 418.269073,675.276123 
z"/>
<path fill="#000000" opacity="1.000000" stroke="none" 
	d="
M419.872101,412.855652 
	C427.853577,407.292297 433.949188,406.901764 440.459991,411.301575 
	C445.826721,414.928284 448.572296,422.128967 447.178833,428.922607 
	C445.311310,438.027466 435.606628,443.669769 426.390045,441.009186 
	C417.918213,438.563599 412.728027,428.762329 415.463928,420.402832 
	C416.352264,417.688446 417.550049,415.159607 419.872101,412.855652 
z"/>
<path fill="#000000" opacity="1.000000" stroke="none" 
	d="
M431.015869,549.747559 
	C443.219971,551.734924 449.681396,560.484802 446.965027,570.771240 
	C445.024750,578.118591 438.310333,583.046143 430.585571,582.791626 
	C423.070831,582.544067 416.570221,576.843994 414.919708,569.055054 
	C413.549469,562.588684 417.616150,554.686279 423.933105,551.687866 
	C426.034149,550.690613 428.207275,549.825500 431.015869,549.747559 
z"/>
<path fill="#000000" opacity="1.000000" stroke="none" 
	d="
M413.692383,833.487610 
	C412.643127,838.794006 408.925964,840.522522 404.623047,841.176392 
	C400.999176,841.727051 397.339294,841.417175 393.791168,840.249023 
	C387.571808,838.201477 384.678772,833.400513 385.688812,826.682373 
	C386.489960,821.353699 391.070068,817.781128 397.171722,817.725464 
	C406.620728,817.639221 413.643585,824.145935 413.692383,833.487610 
z"/>
<path fill="#000000" opacity="1.000000" stroke="none" 
	d="
M439.444000,841.052002 
	C432.805939,836.962585 431.710907,830.639221 436.358856,824.969116 
	C440.796570,819.555420 446.660400,817.848083 453.351379,818.983887 
	C458.437378,819.847290 461.677429,823.713806 462.287659,829.030396 
	C462.875214,834.149841 460.689178,837.606812 455.375671,839.806763 
	C450.347961,841.888367 445.191071,842.742859 439.444000,841.052002 
z"/>
<path fill="#000000" opacity="1.000000" stroke="none" 
	d="
M412.683472,809.966553 
	C408.602295,805.205750 409.092804,800.856445 413.723328,796.916809 
	C421.735352,790.100281 435.434296,793.720398 437.775513,803.272888 
	C438.939270,808.020996 436.858185,810.534790 431.978607,810.422974 
	C425.685730,810.278748 419.390778,810.224854 412.683472,809.966553 
z"/>
<path fill="#000000" opacity="1.000000" stroke="none" 
	d="
M375.536530,789.239624 
	C382.029510,790.579529 386.805481,793.434753 388.694672,799.813171 
	C390.363403,805.447449 387.697388,808.449097 382.098450,806.999634 
	C377.555817,805.823547 373.022552,805.041016 368.301392,805.046509 
	C363.052032,805.052612 360.918640,801.774353 362.569580,796.739319 
	C364.295441,791.475830 368.160126,789.141541 375.536530,789.239624 
z"/>
<path fill="#000000" opacity="1.000000" stroke="none" 
	d="
M361.526520,831.539795 
	C355.790192,828.789246 350.411743,826.153076 344.983337,823.624084 
	C342.518097,822.475586 340.670502,820.936829 341.034332,817.981140 
	C341.406525,814.957275 342.936859,812.692749 346.020325,811.761902 
	C355.349365,808.945679 367.281097,817.207581 367.909973,826.917664 
	C368.222290,831.739868 366.377441,833.198486 361.526520,831.539795 
z"/>
<path fill="#000000" opacity="1.000000" stroke="none" 
	d="
M477.559479,791.743469 
	C480.853577,792.398132 483.217682,793.821899 484.915833,796.242432 
	C486.547119,798.567688 486.962463,801.089294 485.956512,803.787598 
	C484.874634,806.689514 482.411743,806.898010 479.831512,806.967773 
	C474.844086,807.102661 469.918732,807.653931 465.167694,809.310242 
	C461.311707,810.654541 459.992432,808.514526 459.710632,805.178772 
	C459.189178,799.005066 465.253906,792.714172 472.663330,791.772217 
	C474.132416,791.585449 475.642822,791.723328 477.559479,791.743469 
z"/>
<path fill="#000000" opacity="1.000000" stroke="none" 
	d="
M331.233582,782.402954 
	C337.197479,783.857300 341.206055,787.016907 342.962769,792.601562 
	C343.689636,794.912415 343.606049,797.215149 341.727203,799.101624 
	C339.836395,801.000183 338.000641,799.657227 336.226715,798.926758 
	C332.694733,797.472534 329.205017,795.930481 325.390839,795.319519 
	C322.305115,794.825134 319.187225,793.961853 319.064423,790.193909 
	C318.945312,786.538086 321.011566,783.961121 324.504181,782.650513 
	C326.583099,781.870422 328.681946,781.561890 331.233582,782.402954 
z"/>
<path fill="#000000" opacity="1.000000" stroke="none" 
	d="
M399.799377,781.279785 
	C397.840729,781.272949 396.341949,781.271973 394.843231,781.282959 
	C392.640625,781.299133 390.386139,781.343994 389.279846,778.910156 
	C388.173279,776.475769 389.050476,774.219971 390.579956,772.409180 
	C393.895905,768.483337 398.430054,767.455322 403.264191,768.224915 
	C407.938812,768.969116 411.738525,771.236755 413.363922,776.065125 
	C414.083527,778.202698 414.226562,780.433716 412.710846,782.243347 
	C411.239929,783.999451 409.345612,782.985413 407.611755,782.477966 
	C405.210114,781.774963 402.797272,781.147095 399.799377,781.279785 
z"/>
<path fill="#000000" opacity="1.000000" stroke="none" 
	d="
M436.736084,780.065430 
	C437.892212,773.288757 442.846283,769.589661 449.998810,769.699951 
	C455.958496,769.791748 459.902405,772.887939 460.700714,778.064819 
	C461.259308,781.687317 459.720490,783.818604 456.092529,783.151733 
	C451.264282,782.264099 446.576813,782.280273 441.789398,783.220215 
	C439.573883,783.655212 437.381409,783.358704 436.736084,780.065430 
z"/>
<path fill="#000000" opacity="1.000000" stroke="none" 
	d="
M342.008667,769.111938 
	C344.273865,762.784058 347.408325,760.921021 353.933502,761.616089 
	C359.773193,762.238220 363.975281,765.798279 364.804901,770.959412 
	C365.224518,773.569946 364.700409,776.182922 361.397614,775.397217 
	C355.738983,774.050903 350.139465,772.532776 344.334625,771.893860 
	C343.114655,771.759583 342.385010,770.706665 342.008667,769.111938 
z"/>
<path fill="#000000" opacity="1.000000" stroke="none" 
	d="
M517.884521,798.802979 
	C515.023804,800.206543 512.515991,801.456970 510.153839,802.634705 
	C509.620575,802.393982 509.157898,802.338379 509.054352,802.115784 
	C507.066528,797.841492 509.010406,792.513794 513.856689,788.848022 
	C518.347290,785.451294 523.844727,785.051147 527.260620,787.903625 
	C529.176758,789.503723 530.208923,791.601868 529.804016,794.065796 
	C529.422485,796.387268 527.147461,796.272156 525.464172,796.763367 
	C523.075195,797.460510 520.648254,798.027344 517.884521,798.802979 
z"/>
<path fill="#000000" opacity="1.000000" stroke="none" 
	d="
M502.095764,768.909302 
	C506.109924,775.413025 505.136841,777.423340 498.180176,777.926636 
	C494.864502,778.166443 491.571716,778.492126 488.479004,779.888977 
	C487.171478,780.479614 485.737579,781.602356 484.377808,780.180237 
	C483.006317,778.745850 482.923920,776.995728 483.497711,775.077026 
	C485.680969,767.776306 494.138916,764.765503 502.095764,768.909302 
z"/>
<path fill="#000000" opacity="1.000000" stroke="none" 
	d="
M503.349609,816.318665 
	C506.626953,819.272034 506.227386,821.144653 502.390778,822.581848 
	C495.967957,824.987915 489.621979,827.599121 483.030426,830.208374 
	C483.133087,820.118408 493.806305,812.932922 503.349609,816.318665 
z"/>
<path fill="#000000" opacity="1.000000" stroke="none" 
	d="
M378.641296,742.189880 
	C384.211029,741.424500 388.575409,742.649475 391.303711,747.492432 
	C392.152313,748.998840 392.513275,750.598572 391.307404,752.141418 
	C390.139313,753.635925 388.706482,753.129028 387.244995,752.698792 
	C383.895844,751.712830 380.491913,751.235596 376.973083,751.296387 
	C375.160919,751.327698 372.655579,752.157715 371.970398,749.423401 
	C371.370605,747.029785 372.889984,745.292053 374.683563,743.991699 
	C375.729797,743.233215 377.049683,742.852295 378.641296,742.189880 
z"/>
<path fill="#000000" opacity="1.000000" stroke="none" 
	d="
M420.878876,755.979248 
	C416.196442,755.184570 417.315247,752.296143 418.603699,750.054810 
	C420.597412,746.586487 424.074219,745.293396 427.950226,745.832031 
	C431.861511,746.375671 435.311890,747.956604 436.624756,752.155945 
	C437.610443,755.308777 436.537872,756.981750 433.029663,756.593140 
	C429.131775,756.161377 425.295715,754.629150 420.878876,755.979248 
z"/>
<path fill="#000000" opacity="1.000000" stroke="none" 
	d="
M411.770996,849.635864 
	C420.896515,843.320251 428.274292,843.629028 434.643799,850.838745 
	C427.111938,853.411682 420.050507,856.366150 412.131439,853.293640 
	C409.876038,852.418579 410.453705,851.255493 411.770996,849.635864 
z"/>
<path fill="#000000" opacity="1.000000" stroke="none" 
	d="
M305.927429,756.005127 
	C312.246399,753.218933 319.294373,756.083191 321.212616,761.862122 
	C321.750946,763.483948 322.113464,765.169678 320.705048,766.497253 
	C319.374207,767.751831 317.949158,766.907104 316.548096,766.382324 
	C313.772247,765.342468 311.008942,764.232788 308.163208,763.423462 
	C303.147064,761.996948 302.688354,760.865295 305.927429,756.005127 
z"/>
<path fill="#000000" opacity="1.000000" stroke="none" 
	d="
M300.081421,787.366638 
	C298.666687,789.490356 297.351166,788.381531 296.017487,787.786682 
	C293.287170,786.568787 290.554291,785.355713 287.804077,784.183899 
	C286.137360,783.473755 284.064880,783.104614 284.241394,780.681213 
	C284.392822,778.602966 285.353516,776.904724 287.267059,775.807678 
	C291.730591,773.248352 298.648010,776.806519 300.023468,782.527405 
	C300.364441,783.945496 300.153046,785.496338 300.081421,787.366638 
z"/>
<path fill="#000000" opacity="1.000000" stroke="none" 
	d="
M460.385986,749.848022 
	C465.097534,744.579407 471.475403,743.758545 475.558685,747.554504 
	C476.995361,748.890137 477.873322,750.518005 477.475525,752.439331 
	C477.008392,754.695496 474.965942,754.320801 473.391724,754.266663 
	C470.670868,754.173035 468.123322,754.951416 465.527435,755.494690 
	C460.331360,756.582092 459.547974,755.824158 460.385986,749.848022 
z"/>
<path fill="#000000" opacity="1.000000" stroke="none" 
	d="
M405.274170,722.638062 
	C408.366241,722.549500 411.025360,722.396851 413.383789,724.049866 
	C415.258026,725.363525 415.829102,727.136597 415.349609,729.270386 
	C414.806030,731.689209 412.932648,731.557068 411.021271,731.482605 
	C408.036713,731.366272 405.046997,731.382874 402.059448,731.343506 
	C400.445038,731.322266 398.575562,731.812134 397.944916,729.589844 
	C397.428314,727.769592 398.313965,726.354980 399.534515,725.135071 
	C400.994293,723.676147 402.804199,722.908447 405.274170,722.638062 
z"/>
<path fill="#000000" opacity="1.000000" stroke="none" 
	d="
M531.637573,763.797058 
	C534.437561,760.133240 537.673828,758.066284 542.073242,758.858459 
	C544.733459,759.337524 546.651428,760.951721 546.846558,763.787476 
	C547.043945,766.655273 544.381958,766.398499 542.675903,767.065613 
	C540.688843,767.842590 538.677307,768.598083 536.616882,769.134216 
	C534.722534,769.627197 532.928284,772.308777 530.871948,770.077881 
	C529.119141,768.176086 530.500793,766.049316 531.637573,763.797058 
z"/>
<path fill="#000000" opacity="1.000000" stroke="none" 
	d="
M446.804993,722.824646 
	C448.787628,723.342712 450.475342,723.606018 451.891266,724.371826 
	C453.864410,725.438904 455.360870,727.232178 454.898193,729.602478 
	C454.391602,732.197510 451.966614,731.844238 450.045227,731.936218 
	C448.067383,732.030884 446.078430,731.986755 444.097931,731.910400 
	C441.459351,731.808594 439.028870,731.280945 438.855988,727.951050 
	C438.692261,724.797302 440.829681,723.647827 443.438934,723.071533 
	C444.395966,722.860168 445.404053,722.879761 446.804993,722.824646 
z"/>
<path fill="#000000" opacity="1.000000" stroke="none" 
	d="
M360.886292,726.276184 
	C358.437012,725.754700 356.525360,725.068665 356.786774,722.458191 
	C357.017975,720.149841 358.731812,719.254089 360.754974,718.626953 
	C363.744934,717.700012 366.625092,717.821594 369.376587,719.281738 
	C371.890961,720.615967 372.922516,722.730713 371.882538,725.477356 
	C370.921387,728.015686 368.973206,728.216125 366.606232,727.478088 
	C364.884918,726.941284 363.070312,726.703430 360.886292,726.276184 
z"/>
<path fill="#000000" opacity="1.000000" stroke="none" 
	d="
M329.282715,739.570312 
	C329.501617,734.554199 332.083130,732.913147 337.698639,733.732788 
	C341.947510,734.352844 345.064819,737.954529 344.407471,741.456299 
	C344.073547,743.235229 343.170013,744.110168 341.293610,743.531982 
	C337.374329,742.324402 333.457977,741.107300 329.282715,739.570312 
z"/>
<path fill="#000000" opacity="1.000000" stroke="none" 
	d="
M318.398743,806.565063 
	C320.580078,809.004578 322.721802,811.075806 322.692474,815.529358 
	C316.052460,812.010193 310.138611,808.875854 304.061279,805.654907 
	C308.179901,801.211731 312.141205,801.548828 318.398743,806.565063 
z"/>
<path fill="#000000" opacity="1.000000" stroke="none" 
	d="
M553.844116,779.814270 
	C559.580444,775.430359 562.179871,775.524353 565.305115,780.397766 
	C560.743103,783.132446 556.194458,785.859131 551.406738,788.729126 
	C549.924866,784.852966 552.062744,782.562866 553.844116,779.814270 
z"/>
<path fill="#000000" opacity="1.000000" stroke="none" 
	d="
M507.227295,752.224854 
	C503.723236,753.480591 502.921051,751.768311 503.370361,749.145020 
	C503.926056,745.900696 505.823456,743.735596 509.303528,743.557251 
	C512.988403,743.368469 516.079773,744.320007 517.349731,748.535461 
	C513.961914,749.755188 510.760712,750.907654 507.227295,752.224854 
z"/>
<path fill="#000000" opacity="1.000000" stroke="none" 
	d="
M270.529266,754.502930 
	C269.235748,749.398560 271.303009,747.386536 276.035736,748.951965 
	C280.167114,750.318604 281.899567,753.406128 281.337921,758.111389 
	C277.272095,758.384277 274.036041,756.539124 270.529266,754.502930 
z"/>
<path fill="#000000" opacity="1.000000" stroke="none" 
	d="
M429.556915,701.822632 
	C432.490692,702.787720 434.958160,703.739441 435.122681,707.475769 
	C430.963959,708.747559 426.870453,707.911133 422.860291,707.928528 
	C421.698883,707.933594 420.783844,706.888428 420.639771,705.570801 
	C420.493683,704.235046 421.281189,703.439209 422.350494,702.791321 
	C424.480682,701.500732 426.804962,701.629578 429.556915,701.822632 
z"/>
<path fill="#000000" opacity="1.000000" stroke="none" 
	d="
M488.265930,725.713013 
	C491.318298,729.191772 490.639099,731.123230 486.368439,731.202271 
	C483.534149,731.254700 480.225067,732.408875 478.216064,729.239136 
	C477.388214,727.932983 477.394775,726.152527 478.705841,725.143494 
	C481.778534,722.778625 484.912384,723.802856 488.265930,725.713013 
z"/>
<path fill="#000000" opacity="1.000000" stroke="none" 
	d="
M300.230286,728.771240 
	C302.353302,728.656433 303.941956,729.060974 305.294861,730.157288 
	C306.806030,731.381775 307.957153,732.994873 307.160461,734.903625 
	C306.261475,737.057434 304.392487,735.995178 302.827301,735.600159 
	C301.861420,735.356384 300.855042,735.236328 299.923187,734.903076 
	C298.393463,734.356262 296.467712,734.044128 296.505707,731.862488 
	C296.541168,729.823853 298.079315,729.123779 300.230286,728.771240 
z"/>
<path fill="#000000" opacity="1.000000" stroke="none" 
	d="
M574.110229,750.714478 
	C576.635986,749.668213 579.295898,748.589050 580.271118,751.606079 
	C581.155273,754.341125 578.372925,755.103210 576.368958,755.760010 
	C574.575317,756.347778 572.984985,757.918030 570.599365,757.140686 
	C570.142639,754.261719 572.130310,752.672363 574.110229,750.714478 
z"/>
<path fill="#000000" opacity="1.000000" stroke="none" 
	d="
M393.940796,707.346680 
	C392.438049,707.133972 391.201111,707.260315 390.213593,705.385803 
	C393.834503,702.816223 397.680939,703.188416 401.528442,704.470825 
	C402.820312,704.901367 403.509674,706.228333 402.958221,707.726868 
	C402.432983,709.154114 401.285065,709.033081 400.090057,708.738220 
	C398.178406,708.266541 396.258575,707.827881 393.940796,707.346680 
z"/>
<path fill="#000000" opacity="1.000000" stroke="none" 
	d="
M551.569702,734.519470 
	C554.869690,731.955322 557.791199,731.157654 560.749084,735.084900 
	C557.547180,737.530090 553.932983,737.471375 550.948792,738.807190 
	C549.520020,736.832031 550.745605,735.879272 551.569702,734.519470 
z"/>
<path fill="#000000" opacity="1.000000" stroke="none" 
	d="
M453.827881,709.424805 
	C451.894257,707.539673 451.721375,705.626404 454.106750,705.018555 
	C457.655640,704.114197 461.167297,704.471924 463.580994,708.572632 
	C460.224152,709.545898 457.215576,709.773254 453.827881,709.424805 
z"/>
<path fill="#000000" opacity="1.000000" stroke="none" 
	d="
M261.818237,770.017456 
	C263.128754,771.621704 263.838196,773.057495 263.287750,775.162781 
	C259.207977,775.269714 257.582672,771.916321 254.523026,769.922241 
	C257.357361,767.374390 259.463257,768.154480 261.818237,770.017456 
z"/>
<path fill="#000000" opacity="1.000000" stroke="none" 
	d="
M239.561707,742.633606 
	C242.660904,743.696350 244.443848,745.271118 243.665298,748.806885 
	C240.354980,748.946594 237.437042,748.326843 236.241699,745.185059 
	C235.402878,742.980347 237.312820,742.450867 239.561707,742.633606 
z"/>
<path fill="#000000" opacity="1.000000" stroke="none" 
	d="
M521.598877,727.414307 
	C522.269409,722.363770 525.037476,721.818359 529.676025,725.743835 
	C527.393127,727.886292 524.554260,727.428955 521.598877,727.414307 
z"/>
<path fill="#000000" opacity="1.000000" stroke="none" 
	d="
M603.726013,737.086670 
	C605.527161,736.670227 606.930359,736.544250 607.989014,738.118774 
	C606.753357,741.252258 604.174377,740.252380 602.253662,740.880615 
	C601.121094,738.682983 602.387329,738.018127 603.726013,737.086670 
z"/>
<path fill="#000000" opacity="1.000000" stroke="none" 
	d="
M456.737854,306.976868 
	C458.031799,303.596954 459.684601,300.953125 462.735504,299.522736 
	C466.222687,297.887756 469.393463,298.690704 471.602936,301.628296 
	C473.849274,304.614838 473.663818,307.824371 470.834076,310.594208 
	C469.029968,312.360107 466.968170,313.674042 464.543640,314.461334 
	C458.183655,316.526703 455.403442,314.047058 456.737854,306.976868 
z"/>
<path fill="#000000" opacity="1.000000" stroke="none" 
	d="
M374.683044,302.386841 
	C376.687042,306.345428 379.980133,310.210144 376.557831,314.083466 
	C373.897095,317.094818 370.311127,314.533722 367.317078,313.401703 
	C363.756744,312.055603 360.724426,310.002258 360.775635,305.568207 
	C360.807373,302.819092 362.154510,300.884094 364.641235,299.663147 
	C368.617737,297.710785 371.686096,299.225159 374.683044,302.386841 
z"/>
<path fill="#000000" opacity="1.000000" stroke="none" 
	d="
M394.162903,311.905029 
	C386.041748,310.552612 384.626160,309.205872 385.248901,303.886230 
	C385.738312,299.705627 388.295654,298.400848 392.160675,298.678925 
	C397.075195,299.032532 400.990753,302.633087 400.960114,307.068909 
	C400.930786,311.315918 398.179291,312.243195 394.162903,311.905029 
z"/>
<path fill="#000000" opacity="1.000000" stroke="none" 
	d="
M438.830017,310.493469 
	C436.811462,311.540070 435.149963,311.807037 434.519165,309.535004 
	C433.624390,306.312317 433.901428,303.119812 436.677032,300.859100 
	C439.578827,298.495575 443.049591,297.524170 446.383423,299.669678 
	C449.545135,301.704468 449.379700,305.034515 448.232605,308.188507 
	C447.159882,311.138031 445.644470,313.387329 442.078918,310.632629 
	C441.433960,310.134338 440.158356,310.452362 438.830017,310.493469 
z"/>
<path fill="#000000" opacity="1.000000" stroke="none" 
	d="
M381.856628,290.235840 
	C380.404877,290.745911 379.300140,291.210968 378.177429,291.259308 
	C374.789032,291.405151 371.133911,291.472809 369.789429,287.532257 
	C368.564148,283.941071 370.322144,280.990692 373.226349,278.875641 
	C375.966064,276.880402 378.788025,277.556152 380.913025,279.798676 
	C383.711670,282.752106 385.363037,286.153961 381.856628,290.235840 
z"/>
<path fill="#000000" opacity="1.000000" stroke="none" 
	d="
M486.132446,286.815155 
	C485.216003,291.896362 482.002472,294.015533 477.696045,295.258209 
	C474.199890,296.267120 473.046936,294.617371 472.976685,291.656158 
	C472.921570,289.330353 473.641876,287.076721 474.698181,284.996613 
	C476.072235,282.290833 477.636597,279.394836 481.228424,279.904999 
	C484.686371,280.396118 485.975037,283.126556 486.132446,286.815155 
z"/>
<path fill="#000000" opacity="1.000000" stroke="none" 
	d="
M356.947266,281.980225 
	C358.047058,283.689301 359.209656,285.024017 359.623993,286.560516 
	C360.471191,289.702179 361.934479,294.296295 358.862213,295.627838 
	C355.403656,297.126831 351.673676,294.030060 349.433746,290.807617 
	C347.142334,287.511078 346.814117,283.887329 350.079742,280.905304 
	C352.382050,278.802948 354.671600,279.751648 356.947266,281.980225 
z"/>
<path fill="#000000" opacity="1.000000" stroke="none" 
	d="
M463.836212,283.570740 
	C464.737488,288.307556 462.545105,290.568634 458.509430,291.197968 
	C455.345551,291.691437 452.373291,291.139038 451.296021,287.541931 
	C450.141602,283.687073 451.616486,280.675934 454.995178,278.686127 
	C458.468048,276.640869 460.966522,277.996582 463.836212,283.570740 
z"/>
<path fill="#000000" opacity="1.000000" stroke="none" 
	d="
M424.721954,303.690338 
	C425.184937,309.619690 424.496979,310.443909 419.809448,308.774963 
	C416.532562,307.608276 414.119812,309.502350 411.229584,310.339569 
	C408.767853,306.561707 409.213715,303.234039 412.456055,300.573029 
	C415.958099,297.698914 420.846588,298.957001 424.721954,303.690338 
z"/>
<path fill="#000000" opacity="1.000000" stroke="none" 
	d="
M466.778137,267.817078 
	C465.260925,266.671844 464.452698,265.458405 464.347778,263.883514 
	C464.161255,261.083649 464.720917,258.526184 467.504852,257.209320 
	C469.929016,256.062653 471.631104,257.527100 472.968140,259.323639 
	C474.753021,261.721985 475.675934,264.597412 473.902679,267.146515 
	C472.253082,269.517792 469.461700,268.514618 466.778137,267.817078 
z"/>
<path fill="#000000" opacity="1.000000" stroke="none" 
	d="
M363.231995,257.033417 
	C368.191132,257.404449 369.305481,260.366302 368.689819,264.311951 
	C368.146912,267.791260 365.719391,268.810516 362.492126,268.448608 
	C358.955475,268.051941 357.645935,265.444580 358.983063,261.420288 
	C359.641998,259.437134 360.915497,257.983856 363.231995,257.033417 
z"/>
<path fill="#000000" opacity="1.000000" stroke="none" 
	d="
M485.017517,262.649292 
	C485.666107,260.895477 485.933228,259.178955 487.887817,259.275055 
	C489.669861,259.362671 490.360931,260.831940 490.752625,262.275635 
	C491.662842,265.630829 492.198242,269.032593 491.390533,272.515411 
	C491.045807,274.001892 490.748566,275.636658 488.844910,275.615112 
	C487.176270,275.596283 486.340729,274.265015 485.754364,272.814880 
	C484.472198,269.644287 484.632935,266.358917 485.017517,262.649292 
z"/>
<path fill="#000000" opacity="1.000000" stroke="none" 
	d="
M346.359467,275.249573 
	C344.907562,275.905090 343.950623,275.515198 343.589172,274.481964 
	C342.000824,269.941315 342.026947,265.406342 344.186554,261.038055 
	C344.685303,260.029175 345.557648,259.075378 346.941895,259.360596 
	C348.222076,259.624390 349.016907,260.537384 349.059631,261.795349 
	C349.214935,266.367645 350.242249,271.120911 346.359467,275.249573 
z"/>
<path fill="#000000" opacity="1.000000" stroke="none" 
	d="
M390.097321,263.734161 
	C387.948578,263.923370 386.167969,264.099030 384.207947,264.292389 
	C383.085785,259.852448 385.529846,257.935089 388.679932,256.983917 
	C392.166748,255.931107 395.309509,256.870422 397.195587,260.317963 
	C397.748077,261.327850 398.122467,262.511047 397.475342,263.661438 
	C396.738220,264.971771 395.560547,264.670715 394.392914,264.429688 
	C393.090485,264.160889 391.775177,263.954285 390.097321,263.734161 
z"/>
<path fill="#000000" opacity="1.000000" stroke="none" 
	d="
M355.739014,237.391830 
	C358.075867,241.962646 356.315308,245.692154 354.175537,249.319260 
	C353.579010,250.330444 352.587921,251.153397 351.317688,250.994690 
	C349.740601,250.797638 349.300568,249.410522 348.947723,248.128555 
	C347.672119,243.494171 350.590759,238.587570 355.739014,237.391830 
z"/>
<path fill="#000000" opacity="1.000000" stroke="none" 
	d="
M371.182617,244.886566 
	C369.097534,242.574585 369.712830,240.604965 371.301178,238.898483 
	C372.818512,237.268356 374.793976,236.393661 377.088623,236.845245 
	C379.009003,237.223160 380.591370,238.329514 380.714905,240.352448 
	C380.853760,242.626129 379.683105,244.449890 377.584839,245.519562 
	C375.493774,246.585587 373.455933,246.345886 371.182617,244.886566 
z"/>
<path fill="#000000" opacity="1.000000" stroke="none" 
	d="
M483.876343,243.412628 
	C484.243469,246.393295 486.146942,250.189621 482.583313,251.041382 
	C478.629211,251.986465 477.773804,247.747406 476.988251,244.825195 
	C476.329376,242.374237 476.067780,239.681290 477.644745,237.004456 
	C481.228729,237.698593 482.341217,240.524536 483.876343,243.412628 
z"/>
<path fill="#000000" opacity="1.000000" stroke="none" 
	d="
M406.846313,278.898346 
	C409.032532,280.816223 410.718079,282.593475 409.534454,286.004150 
	C405.558197,285.184753 401.537384,283.271759 397.422363,285.561462 
	C397.078857,279.312775 400.529144,276.914948 406.846313,278.898346 
z"/>
<path fill="#000000" opacity="1.000000" stroke="none" 
	d="
M428.315918,279.076172 
	C434.432648,276.905121 437.774628,279.627960 437.023529,286.160889 
	C433.600739,284.287842 429.807892,284.477051 426.293549,283.963531 
	C425.611603,281.667603 426.874817,280.513153 428.315918,279.076172 
z"/>
<path fill="#000000" opacity="1.000000" stroke="none" 
	d="
M446.467407,263.233887 
	C443.277771,261.631226 440.300079,262.506927 437.134857,262.934418 
	C436.545685,258.388489 439.230255,257.045258 442.525055,256.754608 
	C445.969116,256.450806 448.180023,258.505646 449.021973,261.729980 
	C449.438843,263.326508 448.198883,263.659576 446.467407,263.233887 
z"/>
<path fill="#000000" opacity="1.000000" stroke="none" 
	d="
M417.345581,256.989319 
	C421.152954,256.780518 423.341858,258.183411 424.154327,262.178040 
	C420.392365,262.178040 417.047913,262.178040 413.571381,262.178040 
	C412.807220,259.169769 414.632050,257.962463 417.345581,256.989319 
z"/>
<path fill="#000000" opacity="1.000000" stroke="none" 
	d="
M364.416351,221.823578 
	C366.507446,218.591843 368.513611,215.840927 373.305542,215.906158 
	C372.222015,220.580734 369.346924,223.783096 365.993164,225.542435 
	C363.426636,226.888824 363.864136,223.887970 364.416351,221.823578 
z"/>
<path fill="#000000" opacity="1.000000" stroke="none" 
	d="
M396.391052,219.430450 
	C393.586578,221.876266 390.939178,223.231140 388.011566,220.203140 
	C391.082062,216.084900 394.203278,215.739014 396.391052,219.430450 
z"/>
<path fill="#000000" opacity="1.000000" stroke="none" 
	d="
M409.933044,241.428833 
	C406.905731,239.631638 403.925598,240.781418 400.744232,240.781769 
	C401.268036,237.628281 403.380310,236.941101 405.662811,236.775330 
	C408.147278,236.594879 410.152649,237.698486 411.350037,239.936005 
	C411.882843,240.931671 411.248230,241.418472 409.933044,241.428833 
z"/>
<path fill="#000000" opacity="1.000000" stroke="none" 
	d="
M469.515930,223.983215 
	C464.420288,224.702316 463.947937,220.309586 460.747986,216.700653 
	C466.338104,217.425507 467.968109,220.501190 469.515930,223.983215 
z"/>
<path fill="#000000" opacity="1.000000" stroke="none" 
	d="
M451.215820,239.463348 
	C454.887238,235.459488 457.689636,236.185974 460.293152,241.950775 
	C457.081024,241.184448 454.183929,240.493286 451.215820,239.463348 
z"/>
</svg>